<svg xmlns="http://www.w3.org/2000/svg" xmlns:xlink="http://www.w3.org/1999/xlink" viewBox="0 0 817.1 577.1"><defs><style>.cls-1,.cls-3{fill:none;}.cls-2{fill:#0f9d58;}.cls-3{stroke:#1c1c1c;stroke-miterlimit:10;stroke-width:8px;}.cls-4{fill:#e25656;}.cls-5{fill:#0e7eff;}.cls-6{fill:#f7d854;}.cls-7{fill:#1c1c1c;}.cls-8{fill:#fff;}.cls-9{clip-path:url(#clip-path);}</style><clipPath id="clip-path"><circle class="cls-1" cx="406.36" cy="50.56" r="41.91"/></clipPath></defs><g id="T"><polygon class="cls-2" points="498.57 568.15 498.93 560.58 498.87 553.08 498.53 545.58 498.98 538.08 499.1 530.58 498.76 523.09 498.87 515.58 498.78 508.08 498.69 500.58 498.25 493.07 498.41 485.35 505.44 486 512.22 485.47 519.01 486.02 525.81 486.01 532.7 485.48 532.27 493.07 532.33 500.57 532.98 508.06 532.78 515.56 532.58 523.06 532.96 530.56 532.61 538.06 532.82 545.56 532.56 553.07 533 560.57 532.42 567.91 525.82 568.29 519.03 568.33 512.24 567.93 505.45 568.51 498.57 568.15"/><polygon class="cls-3" points="498.57 568.15 498.93 560.58 498.87 553.08 498.53 545.58 498.98 538.08 499.1 530.58 498.76 523.09 498.87 515.58 498.78 508.08 498.69 500.58 498.25 493.07 498.41 485.35 505.44 486 512.22 485.47 519.01 486.02 525.81 486.01 532.7 485.48 532.27 493.07 532.33 500.57 532.98 508.06 532.78 515.56 532.58 523.06 532.96 530.56 532.61 538.06 532.82 545.56 532.56 553.07 533 560.57 532.42 567.91 525.82 568.29 519.03 568.33 512.24 567.93 505.45 568.51 498.57 568.15"/><polygon class="cls-2" points="467.2 463.81 474.8 461.93 481.86 459.37 489.21 457.8 496.2 455 503.44 453.04 510.59 450.76 517.73 448.46 525.03 446.69 532.28 444.74 539.36 442.23 546.75 439.89 548.42 447.58 550.73 454.83 553.5 461.94 555.74 469.51 548.24 471.64 541 473.62 533.93 476.13 526.78 478.39 519.44 480 512.26 482.18 505.04 484.22 497.85 486.33 490.76 488.83 483.55 490.92 476.24 493.39 473.77 485.99 472.12 478.54 469.69 471.33 467.2 463.81"/><polygon class="cls-3" points="467.2 463.81 474.8 461.93 481.86 459.37 489.21 457.8 496.2 455 503.44 453.04 510.59 450.76 517.73 448.46 525.03 446.69 532.28 444.74 539.36 442.23 546.75 439.89 548.42 447.58 550.73 454.83 553.5 461.94 555.74 469.51 548.24 471.64 541 473.62 533.93 476.13 526.78 478.39 519.44 480 512.26 482.18 505.04 484.22 497.85 486.33 490.76 488.83 483.55 490.92 476.24 493.39 473.77 485.99 472.12 478.54 469.69 471.33 467.2 463.81"/></g><g id="U"><polygon class="cls-4" points="564.11 533.97 562.85 527.09 562.2 519.88 561.17 512.73 559.7 505.63 558.57 498.49 557.75 491.31 557.14 484.09 555.67 477 554.87 469.81 553.82 462.65 552.85 455.61 559.78 454.67 566.75 453.04 573.84 452.25 580.93 451.37 588.29 450.1 588.6 457.69 590.53 464.72 590.74 471.99 592.28 479.07 593.53 486.19 594.35 493.38 595.32 500.54 595.78 507.78 596.8 514.94 598.52 522 598.93 529 592.09 529.79 585.1 531.26 578.09 532.59 571.01 533.53 564.11 533.97"/><polygon class="cls-3" points="564.11 533.97 562.85 527.09 562.2 519.88 561.17 512.73 559.7 505.63 558.57 498.49 557.75 491.31 557.14 484.09 555.67 477 554.87 469.81 553.82 462.65 552.85 455.61 559.78 454.67 566.75 453.04 573.84 452.25 580.93 451.37 588.29 450.1 588.6 457.69 590.53 464.72 590.74 471.99 592.28 479.07 593.53 486.19 594.35 493.38 595.32 500.54 595.78 507.78 596.8 514.94 598.52 522 598.93 529 592.09 529.79 585.1 531.26 578.09 532.59 571.01 533.53 564.11 533.97"/><polygon class="cls-4" points="615.82 524.58 612.99 518.17 611.46 511.12 609.11 504.35 606.73 497.59 604.52 490.77 601.58 484.2 599.5 477.33 597.11 470.57 595.19 463.65 593.24 456.73 590.68 450.07 597.5 448.14 604.21 445.75 610.8 442.95 617.55 440.62 624.64 438.28 626.49 445.58 629.05 452.28 631.26 459.1 633.89 465.77 635.63 472.75 638.26 479.43 640.23 486.33 642.61 493.09 645.22 499.79 647.28 506.66 649.32 513.39 642.81 515.95 636.03 518.13 629.18 520.14 622.33 522.15 615.82 524.58"/><polygon class="cls-3" points="615.82 524.58 612.99 518.17 611.46 511.12 609.11 504.35 606.73 497.59 604.52 490.77 601.58 484.2 599.5 477.33 597.11 470.57 595.19 463.65 593.24 456.73 590.68 450.07 597.5 448.14 604.21 445.75 610.8 442.95 617.55 440.62 624.64 438.28 626.49 445.58 629.05 452.28 631.26 459.1 633.89 465.77 635.63 472.75 638.26 479.43 640.23 486.33 642.61 493.09 645.22 499.79 647.28 506.66 649.32 513.39 642.81 515.95 636.03 518.13 629.18 520.14 622.33 522.15 615.82 524.58"/><polygon class="cls-4" points="568.49 534.52 570.7 541.97 573.62 548.57 577.67 554.56 582.88 559.58 588.9 563.67 595.6 566.59 602.84 567.79 610.18 567.83 617.18 565.64 624 563.08 630.04 558.93 635.37 553.85 639.25 547.57 641.92 540.7 642.61 533.39 642.82 525.75 635.29 526.53 627.9 527.54 620.57 529.01 613.18 530.02 605.71 530.34 598.38 531.85 590.87 531.83 583.56 533.56 576.1 534.01 568.49 534.52"/><polygon class="cls-3" points="568.49 534.52 570.7 541.97 573.62 548.57 577.67 554.56 582.88 559.58 588.9 563.67 595.6 566.59 602.84 567.79 610.18 567.83 617.18 565.64 624 563.08 630.04 558.93 635.37 553.85 639.25 547.57 641.92 540.7 642.61 533.39 642.82 525.75 635.29 526.53 627.9 527.54 620.57 529.01 613.18 530.02 605.71 530.34 598.38 531.85 590.87 531.83 583.56 533.56 576.1 534.01 568.49 534.52"/></g><g id="E"><polygon class="cls-4" points="378.03 562.84 370.6 562.67 363.25 562.53 355.9 562.34 348.55 563.07 341.21 562.55 333.86 562.38 326.5 562.93 319.15 562.5 311.8 562.88 304.43 562.77 304.83 554.8 303.99 546.85 304.71 538.89 304.19 530.7 311.79 531.35 319.13 530.62 326.48 531.29 333.83 530.63 341.18 531.24 348.53 530.48 355.88 530.62 363.24 531.04 370.59 530.99 378.26 530.63 378.16 538.88 377.52 546.84 377.69 554.8 378.03 562.84"/><polygon class="cls-3" points="378.03 562.84 370.6 562.67 363.25 562.53 355.9 562.34 348.55 563.07 341.21 562.55 333.86 562.38 326.5 562.93 319.15 562.5 311.8 562.88 304.43 562.77 304.83 554.8 303.99 546.85 304.71 538.89 304.19 530.7 311.79 531.35 319.13 530.62 326.48 531.29 333.83 530.63 341.18 531.24 348.53 530.48 355.88 530.62 363.24 531.04 370.59 530.99 378.26 530.63 378.16 538.88 377.52 546.84 377.69 554.8 378.03 562.84"/><polygon class="cls-4" points="344.31 529.74 336.94 530.38 329.38 529.58 321.82 529.65 314.25 529.77 306.69 529.7 299.12 530.39 291.37 530.1 291.18 521.9 291.56 513.89 291.91 505.86 291.61 497.89 299.11 498.22 306.67 498.09 314.24 497.53 321.8 497.47 329.37 497.36 336.94 498.08 344.55 497.8 344.49 505.86 344.86 513.88 344.29 521.9 344.31 529.74"/><polygon class="cls-3" points="344.31 529.74 336.94 530.38 329.38 529.58 321.82 529.65 314.25 529.77 306.69 529.7 299.12 530.39 291.37 530.1 291.18 521.9 291.56 513.89 291.91 505.86 291.61 497.89 299.11 498.22 306.67 498.09 314.24 497.53 321.8 497.47 329.37 497.36 336.94 498.08 344.55 497.8 344.49 505.86 344.86 513.88 344.29 521.9 344.31 529.74"/><polygon class="cls-4" points="371.11 502.91 364.25 500.5 357.89 497.65 351.27 495.57 344.77 493.11 337.89 491.77 331.31 489.55 324.78 487.2 318.21 484.94 311.71 482.5 305.22 479.99 298.66 477.87 301.52 470.37 303.6 462.54 306.65 455.06 309.35 447.5 315.74 450.07 322.34 452.2 328.92 454.43 335.68 456.1 342.04 458.96 348.58 461.3 355.19 463.43 361.95 465.11 368.57 467.23 374.96 470.01 382.01 471.91 378.47 479.52 376.6 487.42 373.5 494.89 371.11 502.91"/><polygon class="cls-3" points="371.11 502.91 364.25 500.5 357.89 497.65 351.27 495.57 344.77 493.11 337.89 491.77 331.31 489.55 324.78 487.2 318.21 484.94 311.71 482.5 305.22 479.99 298.66 477.87 301.52 470.37 303.6 462.54 306.65 455.06 309.35 447.5 315.74 450.07 322.34 452.2 328.92 454.43 335.68 456.1 342.04 458.96 348.58 461.3 355.19 463.43 361.95 465.11 368.57 467.23 374.96 470.01 382.01 471.91 378.47 479.52 376.6 487.42 373.5 494.89 371.11 502.91"/><polygon class="cls-5" points="301.47 485.84 298.04 492.52 291.36 495.95 284.64 492.56 281.1 485.84 284.2 478.69 291.36 476.15 298.24 478.95 301.47 485.84"/><polygon class="cls-3" points="301.47 485.84 298.04 492.52 291.36 495.95 284.64 492.56 281.1 485.84 284.2 478.69 291.36 476.15 298.24 478.95 301.47 485.84"/></g><g id="N"><polygon class="cls-6" points="379.77 558.35 379.69 551.32 379.25 544.2 379.33 537.07 380.13 529.95 379.33 522.83 380.17 515.71 379.81 508.58 379.51 501.46 379.43 494.34 379.77 487.21 379.89 480.09 379.67 472.96 379.73 465.83 379.76 458.44 387.35 458.42 394.77 458.43 398.9 464.68 402.71 471.05 406.92 477.17 411.11 483.3 414.54 489.92 419.07 495.83 422.5 502.44 426.64 508.6 430.63 514.86 434.65 521.1 438.8 527.26 442.63 533.62 446.51 539.95 450.36 546.31 454.98 552.17 458.54 558.51 451.54 558.21 444.35 558.74 437.17 558.3 429.99 558.66 422.8 558.54 415.62 558.12 408.43 558.95 401.25 558.21 394.06 558.81 386.87 558.03 379.77 558.35"/><polygon class="cls-3" points="379.77 558.35 379.69 551.32 379.25 544.2 379.33 537.07 380.13 529.95 379.33 522.83 380.17 515.71 379.81 508.58 379.51 501.46 379.43 494.34 379.77 487.21 379.89 480.09 379.67 472.96 379.73 465.83 379.76 458.44 387.35 458.42 394.77 458.43 398.9 464.68 402.71 471.05 406.92 477.17 411.11 483.3 414.54 489.92 419.07 495.83 422.5 502.44 426.64 508.6 430.63 514.86 434.65 521.1 438.8 527.26 442.63 533.62 446.51 539.95 450.36 546.31 454.98 552.17 458.54 558.51 451.54 558.21 444.35 558.74 437.17 558.3 429.99 558.66 422.8 558.54 415.62 558.12 408.43 558.95 401.25 558.21 394.06 558.81 386.87 558.03 379.77 558.35"/><polygon class="cls-6" points="430.76 563.49 430.44 556.38 431.43 549.39 430.85 542.4 430.74 535.41 431.27 528.42 430.94 521.42 431.57 514.44 430.76 507.44 431.5 500.46 431.63 493.47 431.57 486.47 431.52 479.48 431.58 472.49 431.64 465.49 430.97 458.15 438.35 458.64 445.41 458.27 452.45 459.19 459.51 458.94 466.43 459.13 466.73 465.98 466.07 472.97 466.96 479.97 466.92 486.96 466.28 493.95 466.43 500.94 465.98 507.93 466.3 514.92 466.77 521.91 466.73 528.9 465.77 535.89 466.15 542.88 466.35 549.88 466.65 556.88 466.31 564.04 459.1 563.54 452.05 563.73 445 563.16 437.94 563 430.76 563.49"/><polygon class="cls-3" points="430.76 563.49 430.44 556.38 431.43 549.39 430.85 542.4 430.74 535.41 431.27 528.42 430.94 521.42 431.57 514.44 430.76 507.44 431.5 500.46 431.63 493.47 431.57 486.47 431.52 479.48 431.58 472.49 431.64 465.49 430.97 458.15 438.35 458.64 445.41 458.27 452.45 459.19 459.51 458.94 466.43 459.13 466.73 465.98 466.07 472.97 466.96 479.97 466.92 486.96 466.28 493.95 466.43 500.94 465.98 507.93 466.3 514.92 466.77 521.91 466.73 528.9 465.77 535.89 466.15 542.88 466.35 549.88 466.65 556.88 466.31 564.04 459.1 563.54 452.05 563.73 445 563.16 437.94 563 430.76 563.49"/><polygon class="cls-5" points="414.96 554.17 412.19 561.25 405.4 564.8 398.32 561.52 395.59 554.17 398.51 547 405.4 544.03 412.2 547.09 414.96 554.17"/><polygon class="cls-3" points="414.96 554.17 412.19 561.25 405.4 564.8 398.32 561.52 395.59 554.17 398.51 547 405.4 544.03 412.2 547.09 414.96 554.17"/></g><g id="V"><polygon class="cls-2" points="237.68 508.9 240.58 501.83 243.06 494.75 245.41 487.63 247.52 480.43 250.37 473.48 252.58 466.31 255.21 459.28 258.27 452.39 260.24 445.11 268.31 445.17 276.34 444.7 284.38 444.31 292.7 444.02 290.34 451.29 287.48 458.05 285.46 465.11 282.29 471.77 280.29 478.84 277.37 485.58 275.26 492.61 272.82 499.52 270.08 506.33 267.81 513.3 265.29 520.19 263.28 527.25 260.33 533.99 257.9 540.91 255.45 547.84 251.81 548.07 250.24 541.29 247.26 535.01 244.8 528.55 243.19 521.78 240.73 515.3 237.68 508.9"/><polygon class="cls-3" points="237.68 508.9 240.58 501.83 243.06 494.75 245.41 487.63 247.52 480.43 250.37 473.48 252.58 466.31 255.21 459.28 258.27 452.39 260.24 445.11 268.31 445.17 276.34 444.7 284.38 444.31 292.7 444.02 290.34 451.29 287.48 458.05 285.46 465.11 282.29 471.77 280.29 478.84 277.37 485.58 275.26 492.61 272.82 499.52 270.08 506.33 267.81 513.3 265.29 520.19 263.28 527.25 260.33 533.99 257.9 540.91 255.45 547.84 251.81 548.07 250.24 541.29 247.26 535.01 244.8 528.55 243.19 521.78 240.73 515.3 237.68 508.9"/><polygon class="cls-2" points="257.06 557.6 248.62 557.05 240.53 556.88 232.44 556.97 224.15 557.59 222.47 550.38 219.69 543.74 218.39 536.64 215.71 529.97 213.22 523.24 211.91 516.15 209.37 509.43 207.27 502.58 205.11 495.75 203.41 488.78 200.58 482.16 198.96 475.15 196.89 468.3 194.32 461.59 192.31 454.7 190.05 447.71 196.98 447.43 203.73 447.63 210.48 447.98 217.24 447.27 223.84 447.83 225.75 454.55 227.66 461.45 230.33 468.12 232.19 475.02 233.93 481.97 236.7 488.61 238.42 495.56 240.06 502.53 242.1 509.38 244.02 516.28 246.12 523.11 248.44 529.89 250.22 536.82 253.06 543.44 254.29 550.55 257.06 557.6"/><polygon class="cls-3" points="257.06 557.6 248.62 557.05 240.53 556.88 232.44 556.97 224.15 557.59 222.47 550.38 219.69 543.74 218.39 536.64 215.71 529.97 213.22 523.24 211.91 516.15 209.37 509.43 207.27 502.58 205.11 495.75 203.41 488.78 200.58 482.16 198.96 475.15 196.89 468.3 194.32 461.59 192.31 454.7 190.05 447.71 196.98 447.43 203.73 447.63 210.48 447.98 217.24 447.27 223.84 447.83 225.75 454.55 227.66 461.45 230.33 468.12 232.19 475.02 233.93 481.97 236.7 488.61 238.42 495.56 240.06 502.53 242.1 509.38 244.02 516.28 246.12 523.11 248.44 529.89 250.22 536.82 253.06 543.44 254.29 550.55 257.06 557.6"/></g><g id="D"><polygon class="cls-6" points="116.9 560.29 115.65 553 114.79 545.85 114.35 538.63 112.89 531.56 112.1 524.4 110.86 517.3 110.31 510.1 108.52 503.08 107.78 495.91 106.65 488.8 106.11 481.59 104.31 474.58 103.62 467.39 102.13 460.32 101.74 453.25 107.97 452.3 114.36 451.2 120.83 450.63 127.14 448.97 133.44 448.68 134.75 455.57 135.89 462.69 136.91 469.82 137.3 477.04 138.77 484.1 139.56 491.27 141.34 498.29 142.1 505.46 143.08 512.59 143.65 519.79 145.11 526.86 146.34 533.96 147.27 541.11 148.61 548.2 149.3 555.5 142.72 556.1 136.38 557.56 129.94 558.34 123.49 559.05 116.9 560.29"/><polygon class="cls-3" points="116.9 560.29 115.65 553 114.79 545.85 114.35 538.63 112.89 531.56 112.1 524.4 110.86 517.3 110.31 510.1 108.52 503.08 107.78 495.91 106.65 488.8 106.11 481.59 104.31 474.58 103.62 467.39 102.13 460.32 101.74 453.25 107.97 452.3 114.36 451.2 120.83 450.63 127.14 448.97 133.44 448.68 134.75 455.57 135.89 462.69 136.91 469.82 137.3 477.04 138.77 484.1 139.56 491.27 141.34 498.29 142.1 505.46 143.08 512.59 143.65 519.79 145.11 526.86 146.34 533.96 147.27 541.11 148.61 548.2 149.3 555.5 142.72 556.1 136.38 557.56 129.94 558.34 123.49 559.05 116.9 560.29"/><polygon class="cls-6" points="150.42 453.47 149.72 460.36 150.24 467.38 150.4 474.41 150.44 481.44 149.64 488.49 150.98 488.28 158.69 489.59 165.27 493.91 169.34 500.59 170.27 508.2 169.41 515.84 164.99 522.22 158.72 526.89 150.98 528.42 150.38 528.41 150.55 535.27 149.62 542.13 149.97 549.01 150.12 555.88 150.15 562.73 157.19 562.3 164.27 561.12 171.14 558.96 177.54 555.67 183.6 551.77 188.51 546.51 193.26 541.21 197.36 535.36 200.61 528.99 203.34 522.33 204.17 515.18 204.99 508.05 204.16 500.93 202.86 493.9 200.56 487.13 197.56 480.62 193.34 474.83 189 469.1 183.65 464.25 177.51 460.48 170.83 457.88 164.3 454.86 157.26 453.31 150.42 453.47"/><polygon class="cls-3" points="150.42 453.47 149.72 460.36 150.24 467.38 150.4 474.41 150.44 481.44 149.64 488.49 150.98 488.28 158.69 489.59 165.27 493.91 169.34 500.59 170.27 508.2 169.41 515.84 164.99 522.22 158.72 526.89 150.98 528.42 150.38 528.41 150.55 535.27 149.62 542.13 149.97 549.01 150.12 555.88 150.15 562.73 157.19 562.3 164.27 561.12 171.14 558.96 177.54 555.67 183.6 551.77 188.51 546.51 193.26 541.21 197.36 535.36 200.61 528.99 203.34 522.33 204.17 515.18 204.99 508.05 204.16 500.93 202.86 493.9 200.56 487.13 197.56 480.62 193.34 474.83 189 469.1 183.65 464.25 177.51 460.48 170.83 457.88 164.3 454.86 157.26 453.31 150.42 453.47"/></g><g id="A"><polygon class="cls-5" points="74.62 537.52 71.53 544.89 64.16 547.92 56.97 544.71 54.18 537.52 57.07 530.43 64.16 526.96 71.84 529.84 74.62 537.52"/><polygon class="cls-3" points="74.62 537.52 71.53 544.89 64.16 547.92 56.97 544.71 54.18 537.52 57.07 530.43 64.16 526.96 71.84 529.84 74.62 537.52"/><polygon class="cls-4" points="64.13 505.94 61.6 512.38 59.2 518.88 57.03 525.47 54.14 531.78 51.87 538.33 49.18 544.72 46.08 550.95 44.06 557.61 41.36 563.86 34.73 564.25 27.95 564.6 21.17 564.98 14.38 565.18 7.65 564.96 9.9 558.07 13.27 551.55 15.48 544.58 18.6 537.96 20.93 531.03 23.59 524.23 26.53 517.54 29.02 510.68 31.74 503.9 33.96 496.94 37.12 490.33 39.76 483.53 42.41 476.72 44.27 469.6 47.69 463.03 50.45 462.9 52.89 470.02 54.47 477.42 56.9 484.54 59.28 491.69 61.49 498.89 64.13 505.94"/><polygon class="cls-3" points="64.13 505.94 61.6 512.38 59.2 518.88 57.03 525.47 54.14 531.78 51.87 538.33 49.18 544.72 46.08 550.95 44.06 557.61 41.36 563.86 34.73 564.25 27.95 564.6 21.17 564.98 14.38 565.18 7.65 564.96 9.9 558.07 13.27 551.55 15.48 544.58 18.6 537.96 20.93 531.03 23.59 524.23 26.53 517.54 29.02 510.68 31.74 503.9 33.96 496.94 37.12 490.33 39.76 483.53 42.41 476.72 44.27 469.6 47.69 463.03 50.45 462.9 52.89 470.02 54.47 477.42 56.9 484.54 59.28 491.69 61.49 498.89 64.13 505.94"/><polygon class="cls-4" points="46.71 454.72 53.66 455.22 60.2 455.39 66.76 455.3 73.32 454.62 79.71 455.18 82.64 461.67 84.21 468.79 87.14 475.44 89.87 482.16 91.45 489.27 94.24 495.97 96.59 502.82 99 509.65 100.96 516.63 104.04 523.23 105.91 530.24 108.24 537.11 111.05 543.79 113.33 550.67 115.86 557.47 118.35 564.58 111.19 564.54 104.35 564.2 97.5 564.91 90.64 564.3 83.97 564.37 81.92 557.63 79.01 550.98 76.9 544.07 74.91 537.12 71.89 530.51 69.92 523.55 68.03 516.56 65.75 509.71 63.58 502.81 61.23 495.98 58.67 489.22 56.63 482.28 53.56 475.69 52.07 468.57 49.01 461.97 46.71 454.72"/><polygon class="cls-3" points="46.71 454.72 53.66 455.22 60.2 455.39 66.76 455.3 73.32 454.62 79.71 455.18 82.64 461.67 84.21 468.79 87.14 475.44 89.87 482.16 91.45 489.27 94.24 495.97 96.59 502.82 99 509.65 100.96 516.63 104.04 523.23 105.91 530.24 108.24 537.11 111.05 543.79 113.33 550.67 115.86 557.47 118.35 564.58 111.19 564.54 104.35 564.2 97.5 564.91 90.64 564.3 83.97 564.37 81.92 557.63 79.01 550.98 76.9 544.07 74.91 537.12 71.89 530.51 69.92 523.55 68.03 516.56 65.75 509.71 63.58 502.81 61.23 495.98 58.67 489.22 56.63 482.28 53.56 475.69 52.07 468.57 49.01 461.97 46.71 454.72"/></g><g id="R"><polygon class="cls-6" points="710.91 569.5 707.99 562.62 704.48 556.33 701.02 550.02 697.71 543.62 693.91 537.48 690.54 531.11 687.15 524.74 693.33 521.42 699.5 518.05 705.55 514.5 711.5 510.5 715.53 516.97 718.36 523.99 722.56 530.23 726.34 536.71 729.58 543.5 733.56 549.88 736.67 556.34 730.77 559.96 723.92 562.49 717.34 565.58 710.91 569.5"/><polygon class="cls-3" points="710.91 569.5 707.99 562.62 704.48 556.33 701.02 550.02 697.71 543.62 693.91 537.48 690.54 531.11 687.15 524.74 693.33 521.42 699.5 518.05 705.55 514.5 711.5 510.5 715.53 516.97 718.36 523.99 722.56 530.23 726.34 536.71 729.58 543.5 733.56 549.88 736.67 556.34 730.77 559.96 723.92 562.49 717.34 565.58 710.91 569.5"/><polygon class="cls-6" points="649.22 567.86 649.33 560.9 649.46 553.72 649.4 546.53 649.11 539.35 649.38 532.17 648.56 524.98 649.4 517.8 648.6 510.62 649.04 503.44 649.06 496.25 648.94 489.07 648.57 481.89 648.97 474.71 648.71 467.52 648.89 460.33 649.35 453.5 656.75 453.1 664.49 453.39 672.23 453.14 680.09 453.02 680.33 460.32 680.34 467.5 679.89 474.68 680.33 481.87 679.54 489.05 680.01 496.23 679.5 503.41 679.84 510.59 679.82 517.78 679.5 524.96 679.67 532.14 679.58 539.33 680.03 546.51 679.49 553.69 679.49 560.88 679.64 567.71 672.24 568.43 664.5 567.61 656.75 568.29 649.22 567.86"/><polygon class="cls-3" points="649.22 567.86 649.33 560.9 649.46 553.72 649.4 546.53 649.11 539.35 649.38 532.17 648.56 524.98 649.4 517.8 648.6 510.62 649.04 503.44 649.06 496.25 648.94 489.07 648.57 481.89 648.97 474.71 648.71 467.52 648.89 460.33 649.35 453.5 656.75 453.1 664.49 453.39 672.23 453.14 680.09 453.02 680.33 460.32 680.34 467.5 679.89 474.68 680.33 481.87 679.54 489.05 680.01 496.23 679.5 503.41 679.84 510.59 679.82 517.78 679.5 524.96 679.67 532.14 679.58 539.33 680.03 546.51 679.49 553.69 679.49 560.88 679.64 567.71 672.24 568.43 664.5 567.61 656.75 568.29 649.22 567.86"/><polygon class="cls-6" points="691.91 516.55 699.18 514.29 705.54 510.79 710.9 505.91 715.47 500.19 717.56 493.19 719.27 486.13 718.9 478.83 716.43 471.97 713.01 465.59 708.05 460.33 702.08 456.3 695.51 453.34 688.39 451.76 681.51 452.54 682.1 459.62 683.3 466.72 684.39 473.84 686.27 480.83 687.31 487.96 688.23 495.11 690.22 502.08 691.12 509.25 691.91 516.55"/><polygon class="cls-3" points="691.91 516.55 699.18 514.29 705.54 510.79 710.9 505.91 715.47 500.19 717.56 493.19 719.27 486.13 718.9 478.83 716.43 471.97 713.01 465.59 708.05 460.33 702.08 456.3 695.51 453.34 688.39 451.76 681.51 452.54 682.1 459.62 683.3 466.72 684.39 473.84 686.27 480.83 687.31 487.96 688.23 495.11 690.22 502.08 691.12 509.25 691.91 516.55"/></g><g id="E-2" data-name="E"><polygon class="cls-2" points="810.94 568.24 803.74 568.55 796.35 568.65 788.95 568.64 781.55 567.98 774.16 568.43 766.76 568.18 759.35 568.93 751.95 568.65 744.55 568.59 737.37 568.21 737.06 561.67 736.86 554.89 736.96 548.1 736.66 541.3 737.03 534.39 744.54 534.75 751.94 534.22 759.34 534.37 766.73 534.6 774.13 534.04 781.53 534.76 788.93 534.93 796.33 534.84 803.74 534.15 810.96 534.71 811.55 541.3 810.68 548.08 811.26 554.87 811.63 561.67 810.94 568.24"/><polygon class="cls-3" points="810.94 568.24 803.74 568.55 796.35 568.65 788.95 568.64 781.55 567.98 774.16 568.43 766.76 568.18 759.35 568.93 751.95 568.65 744.55 568.59 737.37 568.21 737.06 561.67 736.86 554.89 736.96 548.1 736.66 541.3 737.03 534.39 744.54 534.75 751.94 534.22 759.34 534.37 766.73 534.6 774.13 534.04 781.53 534.76 788.93 534.93 796.33 534.84 803.74 534.15 810.96 534.71 811.55 541.3 810.68 548.08 811.26 554.87 811.63 561.67 810.94 568.24"/><polygon class="cls-2" points="787.94 518.46 781.08 521.36 773.66 523.02 766.44 525.27 759.51 528.4 752.37 530.9 745.14 533.13 738.03 534.97 735.69 528.89 733.78 522.38 731.43 516 729.75 509.4 726.9 502.97 734.32 500.74 741.46 498.25 748.79 496.34 755.72 493.21 763.01 491.15 770.04 488.32 777.27 486.57 779.41 492.83 781.71 499.21 783.52 505.77 786.37 511.98 787.94 518.46"/><polygon class="cls-3" points="787.94 518.46 781.08 521.36 773.66 523.02 766.44 525.27 759.51 528.4 752.37 530.9 745.14 533.13 738.03 534.97 735.69 528.89 733.78 522.38 731.43 516 729.75 509.4 726.9 502.97 734.32 500.74 741.46 498.25 748.79 496.34 755.72 493.21 763.01 491.15 770.04 488.32 777.27 486.57 779.41 492.83 781.71 499.21 783.52 505.77 786.37 511.98 787.94 518.46"/><polygon class="cls-2" points="802.17 486.15 794.78 485.93 787.71 485.33 780.65 485.96 773.58 485.82 766.51 486.2 759.44 486.18 752.37 486.02 745.3 486.17 738.24 485.22 731.16 485.56 724.03 485.67 723.99 478.83 724.11 472.04 724.35 465.25 724.53 458.46 724.35 451.85 731.24 452.08 738.31 451.38 745.37 451.47 752.44 451.64 759.51 451.75 766.58 452.21 773.65 451.66 780.71 452.04 787.78 451.69 794.86 451.79 801.98 451.82 801.78 458.65 802.05 465.44 801.52 472.23 801.38 479.03 802.17 486.15"/><polygon class="cls-3" points="802.17 486.15 794.78 485.93 787.71 485.33 780.65 485.96 773.58 485.82 766.51 486.2 759.44 486.18 752.37 486.02 745.3 486.17 738.24 485.22 731.16 485.56 724.03 485.67 723.99 478.83 724.11 472.04 724.35 465.25 724.53 458.46 724.35 451.85 731.24 452.08 738.31 451.38 745.37 451.47 752.44 451.64 759.51 451.75 766.58 452.21 773.65 451.66 780.71 452.04 787.78 451.69 794.86 451.79 801.98 451.82 801.78 458.65 802.05 465.44 801.52 472.23 801.38 479.03 802.17 486.15"/><polygon class="cls-5" points="803.58 524.06 800.08 530.76 793.37 534.06 786.19 531.24 783.17 524.06 786.73 517.41 793.37 514.07 800.59 516.84 803.58 524.06"/><polygon class="cls-3" points="803.58 524.06 800.08 530.76 793.37 534.06 786.19 531.24 783.17 524.06 786.73 517.41 793.37 514.07 800.59 516.84 803.58 524.06"/></g><g id="text-summit"><polygon class="cls-7" points="621.72 444.91 614.76 445.2 607.57 444.81 600.38 445.47 593.18 444.88 585.99 445.22 578.79 444.74 571.6 445.62 564.41 445.05 557.22 445.37 550.02 445.65 542.83 445.73 535.64 445.22 528.45 445.63 521.25 445.58 514.06 445.69 506.86 444.89 499.67 444.97 492.48 444.94 485.28 445.03 478.09 445.45 470.89 444.94 463.7 445.48 456.5 445.13 449.31 444.99 442.12 445.61 434.92 445.09 427.73 445.44 420.53 445.58 413.34 445.8 406.15 445.63 398.96 445.07 391.76 445.05 384.57 445.37 377.38 445.11 370.19 445.73 362.99 445.35 355.8 445.75 348.61 445.53 341.41 445.31 334.21 445.46 327.02 445.3 319.82 445.61 312.63 445.18 305.43 445.93 298.23 445.61 291.04 445.64 283.84 445.42 276.64 446.07 269.44 445.63 262.25 445.97 255.05 446.04 247.85 445.75 240.65 445.42 233.46 446.05 226.26 445.53 219.05 446.03 211.92 445.59 211.85 438.64 211.91 431.6 212.13 424.56 211.44 417.53 212.16 410.49 211.81 403.45 211.69 396.41 211.82 389.38 211.92 382.34 211.59 375.31 211.83 368.27 211.94 361.23 211.88 354.19 211.5 347.15 212.13 340.11 211.52 332.88 218.89 333.17 226.08 332.72 233.28 332.94 240.47 333.01 247.66 333.36 254.85 332.76 262.05 333.5 269.24 333 276.43 333.29 283.63 333.4 290.82 332.7 298.01 332.51 305.21 333.43 312.4 333.32 319.59 333.35 326.79 333.18 333.98 332.6 341.18 333.16 348.37 333.22 355.56 332.85 362.76 332.89 369.95 333.21 377.14 332.72 384.34 332.4 391.53 332.68 398.73 332.36 405.92 332.51 413.12 332.78 420.31 332.55 427.5 332.8 434.69 333.06 441.88 332.81 449.08 332.73 456.27 332.66 463.46 333.1 470.66 332.38 477.85 333 485.05 333.03 492.24 332.86 499.43 332.5 506.63 332.4 513.83 332.63 521.02 332.26 528.22 333.08 535.42 332.92 542.62 332.61 549.81 332.75 557.01 332.66 564.21 332.47 571.4 332.6 578.6 333.05 585.8 333.05 593 332.19 600.19 332.65 607.39 332.49 614.6 332.18 621.83 332.51 621.33 339.57 622.12 346.61 621.37 353.65 621.4 360.69 621.71 367.72 621.46 374.76 621.72 381.8 622.11 388.83 622.28 395.87 622.24 402.9 622.2 409.94 621.88 416.98 621.57 424.02 621.88 431.06 621.87 438.1 621.72 444.91"/><path class="cls-8" d="M267.55,424.2l-8.69-1.28-7.65-3.75-6.28-6.11-4.08-8.83,6.56-2,6.1-2.61,5.12,8.43,9,3.48,4-.42,3.49-1.55,2.71-2.48.37-3.83-.4-3.6-2.32-3L271,394.25l-6.54-2.57-4.31-1.82-5.8-2.8-5.6-3.83-3.35-6.07L243.54,370l1.41-7.94,5.22-5.95,7.14-4.16,9.25-2.49,9.35,1.83,6.35,4.13,4.54,4.68,2.51,4.68-5.71,2.81-6,2.1-3.81-4.8-7-2.91-7.27,2.38-3.36,5.32,3.52,5.11,8.57,4.81,4.58,1.2,8,3.2,6.24,4.65,3.51,6.47,1.76,7.91L290,412.79l-5.74,6.82L276,422.8Z"/><path class="cls-8" d="M333.51,416.46l-.62-.08-6.16,5.82-8.83,1.9L310.37,423l-6.35-4.2-3.4-7.24-1.08-8-.52-7.4,1-7.4-.8-7.4.56-7.18,6.26-.57,6.84,0-.21,7.28-.34,7,.55,7-.55,7,2.76,7.7,6.7,2.67,4.51-1.58,3.91-2.53,1.55-4.86,1.21-5.51-.48-8,.42-8-.23-8.17,6.76-.31,6.61.41.07,7.05-.51,7,.1,7-.11,7,.86,7-.57,7-.22,6.66h-5.77l-6.41.64Z"/><path class="cls-8" d="M357.4,374.17l5.85-.21,6.25-.16.15,6.46.64.14,6-6.08,8.82-2.05,9.28,2.74,5.48,6.54,6.37-6.82L416.54,372l7.82,1.57,5.32,4.19,3.76,6,.8,8.06-.39,7.7-.18,7.7.58,7.7.23,8-6.86-.32-6.44,0-.17-7,.47-7.1v-7.11l-.89-7.1-1.66-6.8-6.08-3.25-4.45,1.47-3.49,2.84-2,4.69-.49,5.76-.22,7.9.32,7.91-.29,8-6.65-.5-6.48.38-.09-7.06.27-7.1-.63-7.11.1-7.1L387.35,387l-6.89-2.16-4.52.43-2.82,3.48-1.92,4.56L369.87,399l.24,7.9-.22,7.91.36,7.92-6.54.26-6.35-.42-.06-6.8-.41-7,.71-7-.05-7,0-7-.21-7Z"/><path class="cls-8" d="M444.89,373.85l6.09.32,6.21-.44-.38,6.49.91-.23,6.37-5.7,8.78-2.27,9.53,2.52,5.23,6.68,6.45-6.47,10.19-2.83,7.84,1.52,5.34,4.2,3.24,6.21,1.52,7.91-.82,7.71.94,7.69-.41,7.71.21,7.91-6.78.1-6.72-.12.58-7.27-.52-7.1.23-7.11-.34-7.11-1.59-7-6.39-2.64-4.52,1-3.43,3L490.13,393l-.66,5.91.23,7.91-.06,7.91.2,7.88-6.49.17-6.32-.32.12-6.9-.35-7.1.46-7.11-.9-7.1-1.72-7-6.45-3.37-4.49,1.36-3.13,3.24L458.16,393l-.14,5.9-.31,7.91.58,7.91-.66,7.63-6.18.41L445,422.6l-.45-6.91.7-7-.84-7,.61-7-.5-7,.84-7Z"/><path class="cls-8" d="M539.86,366.76l-3.23-.31-3-1.46-1.61-2.9-.69-3.34.84-3.28,2-2.43,2.32-2.37,3.39-.46,5.81,2.77,2.26,5.75-2.2,5.81Zm-6.15,55.55-.24-6.73-.48-7,.3-7,0-7,.19-7,.28-7-.61-7.25,6.81.1,6.35.32-.22,6.8.24,7,.13,7-.3,7,.47,7-.41,7,.53,7.17-6.73-.06Z"/><path class="cls-8" d="M563.54,384.56l-8.8.27.17-5.57-.07-5.4,8.76.16-.46-7.83.19-7.43,6.48-.34,6.75.08-.44,7.67.13,7.56,6.09-.4L588,374l.68,5.25v5.95l-6.33-.19-6.21-.37.37,6.71-.42,6.51,0,6.51.66,3.22,1.55,2.31,3.75,2.15,2.69-.65,2.31-1.14,1,6.07,2.3,5.59-4.91,1.71-5.85.34-6.75-.71-5.16-3.16-3.51-6.29-1.13-7.07.61-7.29-.11-7.29Z"/></g><g id="blue-circle"><polygon class="cls-5" points="531.1 324.41 529.07 331.79 524.16 337.83 516.55 339.73 508.88 338.17 503.4 332.57 500.72 325.14 502.93 317.53 508.14 311.57 515.84 310.01 523.38 311.58 529.39 316.72 531.1 324.41"/><polygon class="cls-3" points="531.1 324.41 529.07 331.79 524.16 337.83 516.55 339.73 508.88 338.17 503.4 332.57 500.72 325.14 502.93 317.53 508.14 311.57 515.84 310.01 523.38 311.58 529.39 316.72 531.1 324.41"/></g><g id="yellow-circle"><polygon class="cls-6" points="249.75 321.98 247.24 329.44 240.56 333.51 232.96 335.27 225.71 332.06 221.22 325.69 220.15 318.02 222.97 310.74 229.33 306.26 237.04 304.71 244.41 307.79 249.11 314.2 249.75 321.98"/><polygon class="cls-3" points="249.75 321.98 247.24 329.44 240.56 333.51 232.96 335.27 225.71 332.06 221.22 325.69 220.15 318.02 222.97 310.74 229.33 306.26 237.04 304.71 244.41 307.79 249.11 314.2 249.75 321.98"/></g><g id="text-dev"><polygon class="cls-7" points="525.32 313.65 518.5 314.77 511.37 315.2 504.22 315.26 497.15 316.38 490 316.39 482.94 317.59 475.84 318.29 468.66 318.06 461.59 319.04 454.44 319.15 447.39 320.5 440.28 321.11 433.16 321.54 426.01 321.68 418.88 322.08 411.8 323.06 404.71 323.87 397.6 324.58 390.47 324.96 383.31 324.98 376.26 326.35 369.08 326.11 361.97 326.82 354.92 328.08 347.76 328.1 340.65 328.8 333.51 329.02 326.43 330.02 319.31 330.59 312.2 331.31 305.07 331.7 298.02 332.22 297.02 325.33 297.2 318.25 296.11 311.28 295.43 304.27 295.26 297.23 294.51 290.23 293.48 283.25 292.97 276.23 292.52 269.21 291.91 262.2 291.75 255.15 291.24 248.13 290.79 241.11 289.84 234.12 289.18 227.11 288.56 219.81 295.96 219.39 303.09 219 310.19 218.22 317.29 217.61 324.45 217.62 331.49 216.17 338.67 216.46 345.73 215.3 352.88 215.28 359.99 214.6 367.04 213.3 374.23 213.65 381.28 212.39 388.39 211.69 395.5 211.14 402.64 210.92 409.72 209.95 416.86 209.68 423.99 209.21 431.06 208.05 438.22 208.12 445.29 206.97 452.48 207.29 459.59 206.71 466.65 205.43 473.76 204.79 480.91 204.71 488.04 204.22 495.16 203.8 502.28 203.22 509.37 202.16 516.18 202.01 517.23 208.63 517.2 215.69 518.56 222.65 518.6 229.7 519.73 236.67 519.46 243.75 520.81 250.7 521.2 257.73 521.46 264.77 522.1 271.78 522.87 278.77 523.13 285.82 524.26 292.78 524.82 299.8 525.22 306.84 525.32 313.65"/><path class="cls-8" d="M319.07,237.45l8-1,8-.73,8.09.25,7.71-.07,7.57,1.35,6.64,1.94,5.68,4,4.3,5.24,4,5.49,2,7.11,1.8,7.16.12,7.48-2.15,7.13-2.16,6.37-4.19,5.26-4.5,5.21L364,303.15l-7.42,2.47-7.74.79-8,.47-8,1.05-8.14.85-.79-7.25-.37-7.13,0-7.16-1.37-7.05.24-7.17-.71-7.11-1.26-7.05,0-7.17-.7-7.11ZM347.27,294l10-2.84,6.87-5.17,4.66-7.14.7-9.64-2.3-9.38-5.57-6.46-7.67-4.1-10.45-1.31-9.88,1.3.12,7.5,1.24,7.57.74,7.61-.19,7.68,1,7.59.38,8Z"/><path class="cls-8" d="M438.4,287.59,434.49,293l-4.17,5.31-6.62,3.37-7.29,1.19-10.59-.78L397,297.28l-6.13-7.92L388,279l1.66-10.13,4.39-8.78,7.52-6.38L411.7,251l10.5,1.38,8.13,4.52,5.1,7.79,2.88,9.87-.14,1.21.53,1.11-.57.62-7.3.67-7.28,1.28-7.32.69-7.39,0-7.33.8,2.27,4.88,3.26,3.32,4.1,1.92,4.54.41,7.26-2.73,4.18-5.95,5.74,2.36ZM425,269.66l-.66-3-3.11-2.24-3.6-2-5.08-.7-6.87,3.21-4.1,6.28,7.69-.59,7.84-.72Z"/><path class="cls-8" d="M438.4,250.43l7.39-.37,7.44-1,2.48,6.3,3.06,5.94,2.82,6.06,3.68,5.64,2.87,6,.79.33,1.25-6.66,2.21-6.31,2.3-6.29,1.69-6.48,2.13-6.05,7-1.33,7.34-.21L490,253l-2.36,7.23-2.3,7.24-1.83,7.39-3,7-2,7.36-2.88,6.85-6.16.81-6.44.55-3.84-6.57-3-7-3.33-6.82-4.11-6.41-3.21-6.88-3.63-6.67Z"/></g><g id="text-chrome"><polygon class="cls-7" points="623.03 202.17 615.58 202.35 608.44 201.58 601.29 202.32 594.15 201.91 587 201.84 579.85 202.11 572.71 201.52 565.56 201.82 558.41 201.65 551.27 201.96 544.12 201.64 536.97 202.13 529.83 201.31 522.68 202.13 515.53 201.33 508.38 202.08 501.24 201.56 494.09 201.36 486.94 201.49 479.79 201.27 472.64 202.07 465.5 201.46 458.35 201.6 451.2 202.05 444.05 201.31 436.9 201.7 429.76 201.57 422.61 202.1 415.46 201.73 408.31 201.35 401.17 201.32 394.02 201.22 386.88 201.97 379.73 201.92 372.59 201.22 365.44 201.3 358.29 201.11 351.14 202 343.99 201.54 336.85 201.64 329.7 201.84 322.55 201.4 315.4 201.12 308.25 201.5 301.1 201.45 293.94 201.53 286.79 201.37 279.64 201.03 272.49 201.53 265.34 201.5 258.19 201.66 251.04 201.5 243.89 201.31 236.74 201.13 229.59 201.61 222.43 201.03 215.27 201.59 208.22 201.26 207.63 194.34 207.91 187.31 208.46 180.27 208.24 173.23 208.41 166.2 207.89 159.16 208.63 152.12 208.53 145.09 208.56 138.05 208.55 131.01 208.65 123.97 208.57 116.94 208.07 109.9 207.99 102.86 208.13 95.81 208.09 88.61 215.39 88.46 222.54 88.78 229.69 88.38 236.83 88.73 243.97 89.31 251.12 89.09 258.27 89.15 265.42 89.16 272.56 88.36 279.71 88.68 286.86 88.71 294 88.87 301.15 88.48 308.3 88.75 315.45 88.95 322.59 89.27 329.74 89.14 336.89 88.95 344.04 89.29 351.18 89.29 358.33 89.21 365.48 89.03 372.63 88.64 379.77 89.42 386.92 89.36 394.07 88.81 401.22 88.64 408.37 88.53 415.52 88.9 422.66 89.38 429.81 88.66 436.95 88.96 444.1 89.05 451.24 89.48 458.39 89.4 465.54 88.9 472.69 89.22 479.83 89.06 486.98 89.26 494.13 89.45 501.28 89.44 508.43 89.01 515.58 89.56 522.73 89.39 529.88 89.49 537.03 88.89 544.18 88.8 551.33 89.07 558.49 88.92 565.63 88.91 572.79 88.87 579.94 89.46 587.09 89.38 594.24 88.8 601.39 89.48 608.55 88.78 615.71 89.53 623.21 88.91 623.35 96.3 622.46 103.33 623.1 110.37 622.7 117.41 622.74 124.44 622.71 131.48 622.41 138.52 622.47 145.55 622.42 152.59 622.93 159.63 622.57 166.66 622.71 173.7 623.16 180.74 622.43 187.78 622.62 194.83 623.03 202.17"/><path class="cls-8" d="M300.93,167.7l-5.5,5.15-6.61,4.37L281,180l-8.26.26-7.54-.51-7.14-2.41-6.17-3.44-6-3.92-3.9-6-3.88-6-2.45-7.19-.08-7.58.62-7.48,1.94-7.29,3.25-6.4,4.74-5.39,5.7-4.28L258,108.6l7.28-2.4,7.64-.35,7.81.33,7.24,2.9,6.15,3.85,5.89,4.93-5.18,4.34-4.57,5-7.67-5.87L273,118.46l-9.2,2.45L256,125.45l-5.18,7.67-1.63,10.12,1.32,10.23,5.41,7.61,7.56,5.09,9.42,1.45,5.49-.25,5-2.32,4.93-2.37,3.64-4.57,4.31,5.16Z"/><path class="cls-8" d="M309.54,107.61l6.54-.18,6.55.19-.33,6.69-.1,6.68.55,6.69-1.4,8.86,1-.22,6.44-5.22,8.66-2.88,7.66,1.63,6.1,4.53,3.59,7.08,1,8,.48,7.41-.75,7.4,0,7.4,0,7.08-6.16.62-6.19-.63-.54-6.68.05-7-.2-7,.42-7-2.75-7.43-6.35-2.72-4.7,1.07-3.93,2.76-2.34,4.73.13,5.76v7.94l0,7.94-.14,8.25-6.89-.8-6.9.81.81-7.47-.7-7.13.23-7.14-.34-7.13.26-7.14-.29-7.14.61-7.13-.22-7.14.35-7.15Z"/><path class="cls-8" d="M366.74,130.2l6.14-.38,6,.57-.1,6.65.93-.19,2.8-2.86,3-3,4.18-1.28,4.1-.71,4.44.19,3.48,1.47L400,136.6l-2.45,5.57-2.27-1-3.59-.42-4.73,1.67-3.58,2.89-2.55,4.25-.65,5.5-.19,8-.58,8,.55,8.17-6.72-.16-6.8.25.6-7.23-.63-7,.19-7,.19-7-.46-7,.22-7Z"/><path class="cls-8" d="M427.47,128.74,438,130.31l8.17,5.59,5.09,8.43,1.93,10.42-2.11,10.34-4.79,8.65-8.57,4.88-10.34,1.66-10.26-1.87-8.23-5.12-5.26-8.22-2-10.39,2.05-10.38,5-8.45,8.45-4.93Zm-.05,40,4.7-1.33,4.14-2.54,3.13-4.18,1.06-5.94-.89-6-3.44-4-3.75-3.24-4.91-1.22-5,1-4,3-3,4.39-1,6,1,6,3.19,4.16,3.82,3.19Z"/><path class="cls-8" d="M460.82,130.37l6.08.28,6.48-.64-.53,6.74.83-.17,6.56-5.3,8.55-2.78,9.39,2.84,5.35,6.35,6.75-5.85,9.91-3.52,7.87,1.72,5.53,4.1,3.49,6.26.89,8.07-.2,7.7-.44,7.69.6,7.71-.36,7.61-6.42-.24-6.36.16-.14-6.94-.1-7.1.52-7.11-.45-7.11-1.36-7.28L516.49,141,512,142.1l-3.64,2.82-1.59,4.88-.64,5.71-.14,7.9-.37,7.91.41,8.17-6.83-.45h-6.34l.05-6.92-.08-7.1-.11-7.11-.06-7.11-1.83-7.16-6.69-3-4.32,1.44-3.12,3.07-2.47,4.45-.49,5.87.39,7.9-.32,7.92-.09,7.82-6.43-.05-6.45.05.14-6.9-.22-7,.22-7-.41-7,.13-7,.07-7Z"/><path class="cls-8" d="M594.83,167.48l-4.37,5.21-4.73,4.76-6.83,2.83-7.32.4-10.24-1.92-8.14-5.41-5.82-8-1.46-10.51,1.67-10,5.15-8.41,8-5.87,10.4-1.89,10.5,2.07,7.71,5.41,4.25,8.31,2,10.06,0,1.2.31,1.14-.58.59L588,158l-7.36-.56-7.36.57-7.36.26-7.43-.69,1.61,5.46,2.92,3.87,4.16,2.23,4.63.42L579,167l4.86-4.9,5.63,2.34Zm-12-19-.46-2.91-2.73-2.64-3.49-2.3-5-1.32-7.51,2.45-4.46,7.05,8-.45,7.88.5Z"/></g><g id="green-square"><polygon class="cls-2" points="308.07 223.57 308.38 215.43 307.33 207.34 307.22 198.97 314.57 198.62 321.64 198.86 328.7 198.73 335.76 198.21 342.84 198.51 350.25 197.89 350.53 206.29 350.36 214.41 350.56 222.58 343.43 222.59 336.38 223.29 329.31 222.94 322.25 223.38 315.17 223.04 308.07 223.57"/><polygon class="cls-3" points="308.07 223.57 308.38 215.43 307.33 207.34 307.22 198.97 314.57 198.62 321.64 198.86 328.7 198.73 335.76 198.21 342.84 198.51 350.25 197.89 350.53 206.29 350.36 214.41 350.56 222.58 343.43 222.59 336.38 223.29 329.31 222.94 322.25 223.38 315.17 223.04 308.07 223.57"/></g><g id="chrome-logo"><g class="cls-9"><path class="cls-4" d="M372.63,8.1V59.67h17.95l15-22.8,40.46.15.41-29.59Z"/><path class="cls-2" d="M366.26,90.66h38.17l17.72-17.72V59.67l-28.9-1-27-40.7Z"/><path class="cls-6" d="M409.17,37l8.12,21.78-18.91,33.5,48.08-1.63L449.27,37Z"/></g><path class="cls-7" d="M406.36,10.37l7,.54,6.78,1.81,6.14,3.35L432,20l5.12,4.76,4,5.73,2.4,6.55,2.31,6.58v7l0,7-1.91,6.71-2.65,6.49L437,76.25l-4.84,5-6,3.56-6.07,3.43-6.83,1.37-6.89.64-6.88-.71-6.88-1.19-6.39-2.91-5.58-4.24-5.16-4.75-3.91-5.82-2.92-6.36-1.43-6.83-.35-6.9.16-6.94L369,37l2.78-6.37L376,25.1l4.55-5.28L386.38,16l6.3-3,6.81-1.36,6.87-1.25m-.36-7-.9.16-6.86,1.25h-.12l-6.81,1.36-.84.17-.77.37-6.3,3-.47.23-.43.28L376.69,14l-.8.53-.62.72-4.55,5.29-.13.14-.12.16-4.22,5.5-.52.68-.35.78-2.78,6.36-.16.39-.13.4-2,6.65-.27.91,0,1-.15,6.94v.5l.34,6.91,0,.55.12.54,1.43,6.83.16.76.33.72,2.92,6.36.24.51.31.47,3.91,5.83.46.68.61.56,5.16,4.75.24.23.27.2L382,91l.62.47.7.32,6.39,2.92.82.38.9.15,6.89,1.19.23,0,.23,0,6.87.72.69.07.69-.07,6.89-.64.37,0,.36-.07,6.83-1.38,1.1-.22,1-.55,6.06-3.42.07,0,.07,0,6-3.56.81-.48.65-.68,4.85-5,.25-.26.23-.29L446.8,75l.6-.76.36-.9,2.65-6.48.14-.36.11-.37,1.91-6.71.27-.92v-1l0-7V42.39l-.4-1.13-2.31-6.57v0l0,0-2.4-6.56-.31-.86-.53-.75-4-5.73-.43-.61-.54-.5-5.11-4.76-.4-.37-.45-.3-5.76-3.9-.27-.18-.3-.16-6.13-3.35-.74-.41L421.94,6l-6.78-1.81L414.54,4l-.64,0-7-.54-.9-.07Z"/><polygon class="cls-5" points="400.1 63.66 395.07 60.94 392.19 55.44 391.3 49.48 393.29 44.49 395.69 39.17 401.42 36.19 407.08 35.37 413.06 36.59 417.83 40.53 420.65 45.85 420.89 51.53 419.68 56.52 416.86 62.17 411.13 64.49 405.43 65.83 400.1 63.66"/><path class="cls-7" d="M407,39.43l4.31.88,3.39,2.8,2,3.81.18,4.21-1,4L414,59l-4,1.63-4.16,1L401.81,60l-3.76-2-2-3.83L395.41,50,397,46.05l1.8-4,3.9-2,4.3-.62m.23-8.12-1.39.2-4.3.63-1.34.19L399,33l-3.9,2-2.46,1.28-1.14,2.52-1.79,4-.07.16-.07.17L388,47l-.8,2,.32,2.14.64,4.22.2,1.33.62,1.19,2,3.82,1.13,2.17L394.24,65l3.76,2,.39.21.41.16,3.95,1.6,2.36,1,2.48-.58,4.16-1,.6-.14.57-.23,4-1.64,2.8-1.13,1.35-2.71,1.95-3.9.4-.8.21-.88,1-4,.27-1.1-.05-1.13-.18-4.21-.07-1.81-.85-1.6-2-3.81L421,38l-1.23-1-3.38-2.81-1.54-1.27-2-.4-4.3-.88-1.38-.28Z"/><polyline class="cls-5" points="407.56 35.54 414.39 36.03 421.23 35.71 428.06 35.88 434.89 36.34 441.75 35.55 448.58 36.34"/><polyline class="cls-3" points="407.56 35.54 414.39 36.03 421.23 35.71 428.06 35.88 434.89 36.34 441.75 35.55 448.58 36.34"/><polyline class="cls-5" points="419.53 56.9 415.85 63.02 412.22 69.18 408.55 75.31 405.68 81.89 401.71 87.86 398.06 94.01"/><polyline class="cls-3" points="419.53 56.9 415.85 63.02 412.22 69.18 408.55 75.31 405.68 81.89 401.71 87.86 398.06 94.01"/><polyline class="cls-5" points="393.49 58.01 390.64 51.9 386.68 46.46 383.83 40.35 380.26 34.67 376.83 28.89 373.38 23.13"/><polyline class="cls-3" points="393.49 58.01 390.64 51.9 386.68 46.46 383.83 40.35 380.26 34.67 376.83 28.89 373.38 23.13"/></g></svg>